<?xml version="1.0" encoding="UTF-8"?>
<svg id="Layer_1" data-name="Layer 1" xmlns="http://www.w3.org/2000/svg" viewBox="0 0 458.09 150.88">
  <defs>
    <style>
      .cls-1 {
        fill: #181818;
      }
    </style>
  </defs>
  <path id="Logo" class="cls-1" d="M76.95.88H0v76.95c0,40.28,32.77,73.05,73.05,73.05h76.95v-76.95C150,33.65,117.23.88,76.95.88ZM128.46,70.65h-55.27c-27.39,0-49.86-21.39-51.63-48.34h55.39c27.36,0,49.81,21.4,51.51,48.34ZM73.05,129.45c-28.47,0-51.62-23.16-51.62-51.62v-7.24c13.25,13.27,31.56,21.49,51.75,21.49h55.39v37.37h-55.52Z"/>
  <g id="Text">
    <path class="cls-1" d="M171.01,1.14h45.98v14.25h-14.44v37.24h15.01v14.25h-47.12v-14.25h15.01V15.39h-14.44V1.14Z"/>
    <path class="cls-1" d="M255.46,66.88l-8.93-31.73c-1.33-4.66-3.52-16.72-3.52-16.72h-.76s.86,11.5.86,17.38v31.07h-13.68V1.14h21.85l8.93,31.73c1.33,4.66,3.52,16.72,3.52,16.72h.76s-.85-11.49-.85-17.38V1.14h13.68v65.74h-21.85Z"/>
    <path class="cls-1" d="M289.09,20.33c0-11.02,8.08-20.33,22.9-20.33,11.5,0,21.38,5.89,26.41,14.72l-15.11,9.6c-1.42-6.18-5.32-10.36-11.02-10.36-3.42,0-6.18,2.19-6.18,4.94,0,4.18,5.32,5.23,13.11,7.7,10.45,3.23,19.38,7.7,19.38,20.24s-9.31,21.19-23.85,21.19c-13.01,0-22.61-5.8-28.21-16.91l15.48-9.79c2.28,7.69,5.51,12.73,12.45,12.73,4.37,0,7.12-2.75,7.12-5.98,0-5.42-6.17-6.18-14.72-9.03-10.17-3.04-17.77-7.7-17.77-18.71Z"/>
    <path class="cls-1" d="M346.28,1.14h51.68v15.67h-17.01v50.07h-17.67V16.81h-17V1.14Z"/>
    <path class="cls-1" d="M439,54.34h-15.39l-2.47,12.54h-16.25L419.52,1.14h23.94l14.63,65.74h-16.53l-2.57-12.54ZM426.55,39.9h9.5l-2.76-13.4c-.76-3.9-1.71-11.12-1.71-11.12h-.57s-.95,7.22-1.71,11.12l-2.75,13.4Z"/>
    <path class="cls-1" d="M172.72,150.88v-65.74h17.1v50.83h13.11v-20.62l15.77,9.98v25.56h-45.98Z"/>
    <path class="cls-1" d="M230.38,85.14h45.98v14.25h-14.44v37.24h15.01v14.25h-47.12v-14.25h15.01v-37.24h-14.44v-14.25Z"/>
    <path class="cls-1" d="M291.46,150.88v-65.74h17.1v50.83h13.11v-20.62l15.77,9.98v25.56h-45.98Z"/>
    <path class="cls-1" d="M363.76,136.63v-13.02l-19-38.48h17.96l5.13,11.88c2,4.75,4.37,11.97,4.37,11.97h.38s2.47-7.22,4.46-11.97l5.13-11.88h17.29l-19,38.48v13.02h11.59v14.25h-39.9v-14.25h11.59Z"/>
  </g>
  <g id="Shape">
    <path class="cls-1" d="M457.65,150.88h-53.64l8.29-13.96h45.35"/>
  </g>
</svg>