<?xml version="1.0" encoding="UTF-8"?>
<svg id="Layer_1" xmlns="http://www.w3.org/2000/svg" version="1.1" viewBox="0 0 458.1 150.9">
  <!-- Generator: Adobe Illustrator 29.0.1, SVG Export Plug-In . SVG Version: 2.1.0 Build 192)  -->
  <defs>
    <style>
      .st0 {
        fill: #fff;
      }
    </style>
  </defs>
  <path id="Logo" class="st0" d="M76.9.9H0v76.9c0,40.3,32.8,73.1,73.1,73.1h76.9v-76.9C150,33.7,117.2.9,76.9.9ZM128.5,70.7h-55.3c-27.4,0-49.9-21.4-51.6-48.3h55.4c27.4,0,49.8,21.4,51.5,48.3h0ZM73.1,129.4c-28.5,0-51.6-23.2-51.6-51.6v-7.2c13.2,13.3,31.6,21.5,51.8,21.5h55.4v37.4h-55.5Z"/>
  <g id="Text">
    <path class="st0" d="M171,1.1h46v14.3h-14.4v37.2h15v14.3h-47.1v-14.2h15V15.4h-14.4V1.1h0Z"/>
    <path class="st0" d="M255.5,66.9l-8.9-31.7c-1.3-4.7-3.5-16.7-3.5-16.7h-.8s.9,11.5.9,17.4v31.1h-13.7V1.1h21.9l8.9,31.7c1.3,4.7,3.5,16.7,3.5,16.7h.8s-.9-11.5-.9-17.4V1.1h13.7v65.7h-21.9Z"/>
    <path class="st0" d="M289.1,20.3c0-11,8.1-20.3,22.9-20.3s21.4,5.9,26.4,14.7l-15.1,9.6c-1.4-6.2-5.3-10.4-11-10.4s-6.2,2.2-6.2,4.9c0,4.2,5.3,5.2,13.1,7.7,10.5,3.2,19.4,7.7,19.4,20.2s-9.3,21.2-23.9,21.2-22.6-5.8-28.2-16.9l15.5-9.8c2.3,7.7,5.5,12.7,12.5,12.7s7.1-2.8,7.1-6c0-5.4-6.2-6.2-14.7-9-10.2-3-17.8-7.7-17.8-18.7h0Z"/>
    <path class="st0" d="M346.3,1.1h51.7v15.7h-17v50.1h-17.7V16.8h-17V1.1h0Z"/>
    <path class="st0" d="M439,54.3h-15.4l-2.5,12.5h-16.2L419.5,1.1h23.9l14.6,65.7h-16.5l-2.6-12.5h0ZM426.5,39.9h9.5l-2.8-13.4c-.8-3.9-1.7-11.1-1.7-11.1h-.6s-1,7.2-1.7,11.1l-2.8,13.4Z"/>
    <path class="st0" d="M172.7,150.9v-65.7h17.1v50.8h13.1v-20.6l15.8,10v25.6h-46Z"/>
    <path class="st0" d="M230.4,85.1h46v14.2h-14.4v37.2h15v14.2h-47.1v-14.2h15v-37.2h-14.4v-14.2h0Z"/>
    <path class="st0" d="M291.5,150.9v-65.7h17.1v50.8h13.1v-20.6l15.8,10v25.6h-46,0Z"/>
    <path class="st0" d="M363.8,136.6v-13l-19-38.5h18l5.1,11.9c2,4.8,4.4,12,4.4,12h.4s2.5-7.2,4.5-12l5.1-11.9h17.3l-19,38.5v13h11.6v14.2h-39.9v-14.2h11.6Z"/>
  </g>
  <g id="Shape">
    <path class="st0" d="M457.6,150.9h-53.6l8.3-14h45.4"/>
  </g>
</svg>